<?xml version="1.0" encoding="iso-8859-1"?>
<!-- Generator: Adobe Illustrator 19.0.0, SVG Export Plug-In . SVG Version: 6.00 Build 0)  -->
<svg version="1.1" id="Capa_1" xmlns="http://www.w3.org/2000/svg" xmlns:xlink="http://www.w3.org/1999/xlink" x="0px" y="0px"
	 viewBox="0 0 512.002 512.002" style="enable-background:new 0 0 512.002 512.002;" xml:space="preserve">
<g>
	<g>
		<path d="M256.058,114.184c-36.836,0-66.809,29.973-66.809,66.809s29.973,66.809,66.809,66.809
			c36.842,0,66.809-29.973,66.809-66.809S292.9,114.184,256.058,114.184z M256.058,211.361c-16.745,0-30.368-13.623-30.368-30.368
			s13.623-30.368,30.368-30.368c16.745,0,30.368,13.623,30.368,30.368S272.802,211.361,256.058,211.361z"/>
	</g>
</g>
<g>
	<g>
		<path d="M172.978,97.913c7.118-7.112,7.118-18.652,0-25.764c-7.112-7.118-18.652-7.118-25.764,0
			c-59.849,59.849-59.849,157.232,0,217.081c3.553,3.559,8.218,5.339,12.882,5.339c4.665,0,9.329-1.78,12.882-5.339
			c7.118-7.112,7.118-18.652,0-25.764C127.335,217.823,127.335,143.556,172.978,97.913z"/>
	</g>
</g>
<g>
	<g>
		<path d="M364.902,72.149c-7.118-7.118-18.646-7.118-25.764,0c-7.118,7.112-7.118,18.652,0,25.764
			c45.643,45.643,45.643,119.91,0,165.553c-7.118,7.112-7.118,18.652,0,25.764c3.559,3.559,8.217,5.339,12.882,5.339
			s9.323-1.78,12.882-5.339C424.75,229.381,424.75,131.998,364.902,72.149z"/>
	</g>
</g>
<g>
	<g>
		<path d="M44.091,180.993c0-56.624,22.047-109.858,62.084-149.889c7.112-7.118,7.118-18.658,0-25.77
			c-7.118-7.112-18.658-7.112-25.77,0C33.487,52.252,7.65,114.634,7.65,180.993s25.837,128.735,72.755,175.653
			c3.553,3.559,8.218,5.339,12.882,5.339s9.329-1.78,12.882-5.339c7.118-7.118,7.118-18.652,0-25.764
			C66.138,290.845,44.091,237.617,44.091,180.993z"/>
	</g>
</g>
<g>
	<g>
		<path d="M431.711,5.346c-7.118-7.118-18.646-7.118-25.764,0c-7.118,7.112-7.118,18.652,0,25.764
			c82.643,82.643,82.643,217.123,0,299.772c-7.118,7.112-7.118,18.652,0,25.764c3.559,3.559,8.218,5.339,12.882,5.339
			c4.664,0,9.323-1.78,12.882-5.333C528.566,259.797,528.566,102.201,431.711,5.346z"/>
	</g>
</g>
<g>
	<g>
		<path d="M396.296,487.064l-105.68-266.629c-3.717-9.353-14.309-13.933-23.656-10.228c-9.353,3.711-13.933,14.297-10.228,23.656
			l81.525,205.681L203.941,337.181c-8.005-6.11-19.435-4.555-25.533,3.444c-6.104,7.999-4.561,19.435,3.444,25.533l186.458,142.115
			c3.262,2.484,7.149,3.729,11.042,3.729c3.875,0,7.756-1.233,11.005-3.705C396.885,503.359,399.308,494.674,396.296,487.064z"/>
	</g>
</g>
<g>
	<g>
		<path d="M336.216,340.709c-6.055-8.041-17.486-9.651-25.515-3.608L173.573,440.273L255.39,233.87
			c3.705-9.359-0.875-19.946-10.228-23.656c-9.359-3.699-19.946,0.875-23.656,10.228L115.826,487.07
			c-3.006,7.586-0.601,16.253,5.891,21.203c3.262,2.484,7.155,3.729,11.048,3.729c3.857,0,7.713-1.221,10.957-3.662l188.887-142.115
			C340.65,360.175,342.266,348.751,336.216,340.709z"/>
	</g>
</g>
<g>
</g>
<g>
</g>
<g>
</g>
<g>
</g>
<g>
</g>
<g>
</g>
<g>
</g>
<g>
</g>
<g>
</g>
<g>
</g>
<g>
</g>
<g>
</g>
<g>
</g>
<g>
</g>
<g>
</g>
</svg>
