<svg id="Layer_1" enable-background="new 0 0 508.923 508.923" height="512" viewBox="0 0 508.923 508.923" width="512" xmlns="http://www.w3.org/2000/svg"><path d="m446.502 324.088-21.213-21.213c-34.051 34.05-78.382 54.075-125.993 57.203v-31.845c83.978-7.604 150-78.386 150-164.311-8.295-218.595-321.738-218.534-330 .002 0 85.923 66.023 156.705 150 164.308v31.57c-164.114-12.075-240.889-219.153-122.352-335.272l-21.213-21.213c-124.506 121.74-62.742 336.036 98.566 378.714v36.893h-54.271l-45 90h318.54l-45-90h-54.271v-35.907c38.316-10.097 73.446-30.167 102.207-58.929zm-102.206-39.256v-69.696l31.612-31.611-14.364-57.457 42.069-25.239c36.404 65.092 6.383 153.277-59.317 184.003zm-90-252.545v80.824l-36.125-12.042-26.206 39.308-31.102-31.101c17.08-38.426 51.588-67.456 93.433-76.989zm-103.199 109.65 45.531 45.531 33.794-50.691 53.874 17.958v-125.812c40.892 0 77.591 18.278 102.368 47.09l-59.616 35.766 15.636 62.543-28.388 28.389v92.849c-91.364 21.89-179.798-59.873-163.199-153.623zm228.929 306.986 15 30h-221.459l15-30zm-65.73-30h-59.999v-30.615c19.907 2.777 40.084 2.944 59.999.492z"/></svg>