<svg id="Capa_1" enable-background="new 0 0 512 512" height="512" viewBox="0 0 512 512" width="512" xmlns="http://www.w3.org/2000/svg"><g><path d="m510.592 490.656-49.499-106.07c-.739-1.584-1.75-3.028-2.986-4.264l-124.331-124.33 49.135-49.135c35.439 8.494 72.423-1.71 98.403-27.69 31.353-31.353 39.57-79.351 20.448-119.435-2.097-4.397-6.198-7.501-10.998-8.326-4.801-.825-9.703.733-13.148 4.177l-42.266 42.264-21.214-21.214 42.265-42.265c3.445-3.444 5.002-8.347 4.177-13.147-.824-4.8-3.929-8.902-8.325-10.999-40.085-19.122-88.084-10.905-119.437 20.448-25.98 25.98-36.184 62.963-27.689 98.402l-49.135 49.135-167.973-167.972c-13.647-13.647-35.852-13.647-49.499 0l-28.285 28.285c-13.647 13.647-13.647 35.852 0 49.499l167.972 167.972-49.135 49.135c-35.439-8.494-72.423 1.71-98.402 27.689-31.353 31.353-39.57 79.35-20.448 119.436 2.097 4.397 6.198 7.5 10.999 8.325 4.8.825 9.702-.732 13.147-4.177l42.265-42.265 21.214 21.214-42.265 42.265c-3.444 3.445-5.002 8.347-4.176 13.147.824 4.801 3.928 8.902 8.325 10.999 40.086 19.123 88.083 10.906 119.436-20.447 25.979-25.98 36.184-62.964 27.689-98.402l49.135-49.135 124.331 124.331c1.236 1.236 2.679 2.247 4.264 2.986l106.069 49.499c5.716 2.668 12.49 1.474 16.95-2.986 4.461-4.459 5.655-11.233 2.987-16.949zm-178.015-346.606c4.022-4.022 5.424-9.974 3.618-15.37-9.123-27.246-2.288-56.673 17.835-76.796 16.919-16.919 40.634-24.398 63.571-21.144l-35.286 35.286c-5.858 5.858-5.858 15.356 0 21.214l42.428 42.427c5.858 5.858 15.356 5.858 21.214 0l35.286-35.284c3.255 22.937-4.225 46.651-21.143 63.57-20.124 20.124-49.55 26.958-76.796 17.835-5.395-1.806-11.347-.405-15.37 3.618l-55.372 55.372-35.356-35.357zm-301.128-77.245c-1.949-1.949-1.949-5.122 0-7.071l28.285-28.285c1.949-1.949 5.122-1.949 7.071 0l24.75 24.75-35.357 35.356zm45.963 45.964 35.357-35.356 14.143 14.143-35.357 35.357zm101.994 255.165c-4.022 4.022-5.423 9.974-3.618 15.37 9.123 27.246 2.289 56.673-17.835 76.796-16.919 16.919-40.634 24.397-63.57 21.143l35.285-35.285c5.858-5.858 5.858-15.356 0-21.214l-42.428-42.429c-5.858-5.858-15.356-5.858-21.214 0l-35.285 35.285c-3.254-22.937 4.225-46.652 21.143-63.57 20.123-20.123 49.549-26.958 76.797-17.836 5.395 1.806 11.346.406 15.369-3.617l55.371-55.372 35.357 35.356zm-66.637-219.809 35.356-35.357 278.161 278.162-35.356 35.356zm303.911 294.838 26.283-26.283 22.998 49.281z"/></g></svg>